<svg width="16" height="16" viewBox="0 0 16 16" fill="none" xmlns="http://www.w3.org/2000/svg">
<g clip-path="url(#clip0_6522_432)">
<path d="M7.25004 14.6191C7.25004 15.0333 7.58582 15.3691 8.00004 15.3691C8.41425 15.3691 8.75004 15.0333 8.75004 14.6191H7.25004ZM8.75004 7.99992C8.75004 7.58571 8.41425 7.24992 8.00004 7.24992C7.58582 7.24992 7.25004 7.58571 7.25004 7.99992H8.75004ZM2.42548 4.2019C2.05954 4.00785 1.60557 4.1472 1.41151 4.51314C1.21746 4.87909 1.35681 5.33306 1.72275 5.52711L2.42548 4.2019ZM8.00005 8.0069L7.64868 8.66951C7.86266 8.78297 8.11826 8.78612 8.33497 8.67797L8.00005 8.0069ZM14.6313 5.53557C15.0019 5.3506 15.1524 4.90021 14.9674 4.52959C14.7824 4.15897 14.332 4.00847 13.9614 4.19344L14.6313 5.53557ZM9.07925 14.4035L9.42661 15.0683L9.07925 14.4035ZM6.92084 14.4035L7.2682 13.7388H7.2682L6.92084 14.4035ZM1.33337 10.2538L2.08337 10.2538V10.2538L1.33337 10.2538ZM2.47639 12.081L2.12903 12.7457H2.12903L2.47639 12.081ZM13.5237 12.081L13.1763 11.4163L13.5237 12.081ZM6.92084 1.5963L6.57348 0.931586L6.92084 1.5963ZM9.07925 1.5963L8.73189 2.26101V2.26101L9.07925 1.5963ZM13.5237 3.91882L13.8711 3.25411L13.5237 3.91882ZM1.33338 5.74605L2.08338 5.74605V5.74605H1.33338ZM2.47639 3.91882L2.12904 3.25411L2.47639 3.91882ZM8.75004 14.6191V7.99992H7.25004V14.6191H8.75004ZM1.72275 5.52711L7.64868 8.66951L8.35141 7.3443L2.42548 4.2019L1.72275 5.52711ZM8.33497 8.67797L14.6313 5.53557L13.9614 4.19344L7.66513 7.33584L8.33497 8.67797ZM2.82375 4.58354L7.26819 2.26101L6.57348 0.931586L2.12904 3.25411L2.82375 4.58354ZM8.73189 2.26101L13.1763 4.58354L13.8711 3.25411L9.42661 0.931585L8.73189 2.26101ZM13.1763 11.4163L8.73189 13.7388L9.42661 15.0683L13.8711 12.7457L13.1763 11.4163ZM7.2682 13.7388L2.82375 11.4163L2.12903 12.7457L6.57348 15.0683L7.2682 13.7388ZM8.73189 13.7388C8.27834 13.9758 7.72175 13.9758 7.2682 13.7388L6.57348 15.0683C7.46225 15.5327 8.53784 15.5327 9.42661 15.0683L8.73189 13.7388ZM0.583374 10.2538C0.583371 11.3087 1.19111 12.2556 2.12903 12.7457L2.82375 11.4163C2.3507 11.1691 2.08337 10.7171 2.08337 10.2538L0.583374 10.2538ZM13.9167 10.2538C13.9167 10.7171 13.6494 11.1691 13.1763 11.4163L13.8711 12.7457C14.809 12.2556 15.4167 11.3087 15.4167 10.2538H13.9167ZM7.26819 2.26101C7.72174 2.024 8.27834 2.024 8.73189 2.26101L9.42661 0.931585C8.53784 0.46714 7.46225 0.467141 6.57348 0.931586L7.26819 2.26101ZM15.4167 5.74605C15.4167 4.69109 14.809 3.74424 13.8711 3.25411L13.1763 4.58354C13.6494 4.83073 13.9167 5.28278 13.9167 5.74605H15.4167ZM2.08338 5.74605C2.08338 5.28278 2.35071 4.83073 2.82375 4.58354L2.12904 3.25411C1.19112 3.74424 0.58338 4.69109 0.58338 5.74605H2.08338ZM13.9167 5.74605V10.2538H15.4167V5.74605H13.9167ZM2.08337 10.2538L2.08338 5.74605L0.58338 5.74605L0.583374 10.2538L2.08337 10.2538Z" fill="#6E7375"/>
</g>
<defs>
<clipPath id="clip0_6522_432">
<rect width="16" height="16" fill="white"/>
</clipPath>
</defs>
</svg>
